<mxfile host="app.diagrams.net" modified="2023-04-19T01:54:41.651Z" agent="Mozilla/5.0 (Windows NT 10.0; Win64; x64) AppleWebKit/537.36 (KHTML, like Gecko) Chrome/112.0.0.0 Safari/537.36" etag="nWl5xJP5j39OP6B9yi2v" version="21.1.8" type="github">
  <diagram name="第 1 页" id="Owga8iRs9M4aHq998Id_">
    <mxGraphModel dx="1434" dy="756" grid="1" gridSize="10" guides="1" tooltips="1" connect="1" arrows="1" fold="1" page="1" pageScale="1" pageWidth="827" pageHeight="1169" math="0" shadow="0">
      <root>
        <mxCell id="0" />
        <mxCell id="1" parent="0" />
        <mxCell id="WbZ3Wk0u_LfN1Q2NzHBl-9" style="edgeStyle=orthogonalEdgeStyle;rounded=0;orthogonalLoop=1;jettySize=auto;html=1;entryX=0.5;entryY=0;entryDx=0;entryDy=0;entryPerimeter=0;" edge="1" parent="1" source="WbZ3Wk0u_LfN1Q2NzHBl-1" target="WbZ3Wk0u_LfN1Q2NzHBl-2">
          <mxGeometry relative="1" as="geometry" />
        </mxCell>
        <mxCell id="WbZ3Wk0u_LfN1Q2NzHBl-1" value="&lt;font style=&quot;font-size: 17px;&quot;&gt;提交交接单&lt;/font&gt;" style="strokeWidth=2;html=1;shape=mxgraph.flowchart.start_1;whiteSpace=wrap;" vertex="1" parent="1">
          <mxGeometry x="370" y="110" width="100" height="60" as="geometry" />
        </mxCell>
        <mxCell id="WbZ3Wk0u_LfN1Q2NzHBl-4" value="&lt;b&gt;&lt;font style=&quot;font-size: 14px;&quot;&gt;无订单&lt;/font&gt;&lt;/b&gt;" style="edgeStyle=orthogonalEdgeStyle;rounded=0;orthogonalLoop=1;jettySize=auto;html=1;" edge="1" parent="1" source="WbZ3Wk0u_LfN1Q2NzHBl-2" target="WbZ3Wk0u_LfN1Q2NzHBl-3">
          <mxGeometry x="-0.5333" relative="1" as="geometry">
            <mxPoint as="offset" />
          </mxGeometry>
        </mxCell>
        <mxCell id="WbZ3Wk0u_LfN1Q2NzHBl-7" value="&lt;b&gt;&lt;font style=&quot;font-size: 14px;&quot;&gt;有订单&lt;/font&gt;&lt;/b&gt;" style="edgeStyle=orthogonalEdgeStyle;rounded=0;orthogonalLoop=1;jettySize=auto;html=1;" edge="1" parent="1" source="WbZ3Wk0u_LfN1Q2NzHBl-2" target="WbZ3Wk0u_LfN1Q2NzHBl-6">
          <mxGeometry relative="1" as="geometry" />
        </mxCell>
        <mxCell id="WbZ3Wk0u_LfN1Q2NzHBl-2" value="&lt;font style=&quot;font-size: 17px;&quot;&gt;交接单内&lt;br&gt;是否有订单&lt;/font&gt;" style="strokeWidth=2;html=1;shape=mxgraph.flowchart.decision;whiteSpace=wrap;" vertex="1" parent="1">
          <mxGeometry x="370" y="210" width="100" height="80" as="geometry" />
        </mxCell>
        <mxCell id="WbZ3Wk0u_LfN1Q2NzHBl-3" value="&lt;font style=&quot;font-size: 17px;&quot;&gt;结束&lt;/font&gt;" style="strokeWidth=2;html=1;shape=mxgraph.flowchart.terminator;whiteSpace=wrap;" vertex="1" parent="1">
          <mxGeometry x="60" y="850" width="100" height="60" as="geometry" />
        </mxCell>
        <mxCell id="WbZ3Wk0u_LfN1Q2NzHBl-8" value="&lt;b&gt;&lt;font style=&quot;font-size: 14px;&quot;&gt;已提交&lt;/font&gt;&lt;/b&gt;" style="edgeStyle=orthogonalEdgeStyle;rounded=0;orthogonalLoop=1;jettySize=auto;html=1;" edge="1" parent="1" source="WbZ3Wk0u_LfN1Q2NzHBl-6" target="WbZ3Wk0u_LfN1Q2NzHBl-3">
          <mxGeometry x="-0.4194" relative="1" as="geometry">
            <mxPoint as="offset" />
          </mxGeometry>
        </mxCell>
        <mxCell id="WbZ3Wk0u_LfN1Q2NzHBl-11" style="edgeStyle=orthogonalEdgeStyle;rounded=0;orthogonalLoop=1;jettySize=auto;html=1;" edge="1" parent="1" source="WbZ3Wk0u_LfN1Q2NzHBl-6" target="WbZ3Wk0u_LfN1Q2NzHBl-10">
          <mxGeometry relative="1" as="geometry" />
        </mxCell>
        <mxCell id="WbZ3Wk0u_LfN1Q2NzHBl-6" value="&lt;font style=&quot;font-size: 17px;&quot;&gt;交接单&lt;br&gt;是否已提交&lt;/font&gt;" style="rhombus;whiteSpace=wrap;html=1;strokeWidth=2;" vertex="1" parent="1">
          <mxGeometry x="375" y="350" width="90" height="80" as="geometry" />
        </mxCell>
        <mxCell id="WbZ3Wk0u_LfN1Q2NzHBl-13" value="" style="edgeStyle=orthogonalEdgeStyle;rounded=0;orthogonalLoop=1;jettySize=auto;html=1;" edge="1" parent="1" source="WbZ3Wk0u_LfN1Q2NzHBl-10" target="WbZ3Wk0u_LfN1Q2NzHBl-12">
          <mxGeometry relative="1" as="geometry" />
        </mxCell>
        <mxCell id="WbZ3Wk0u_LfN1Q2NzHBl-10" value="&lt;font style=&quot;font-size: 17px;&quot;&gt;调用对应平台&lt;br&gt;提交交接单接口&lt;/font&gt;" style="rounded=1;whiteSpace=wrap;html=1;absoluteArcSize=1;arcSize=14;strokeWidth=2;fillColor=#cdeb8b;strokeColor=#36393d;" vertex="1" parent="1">
          <mxGeometry x="355" y="460" width="130" height="80" as="geometry" />
        </mxCell>
        <mxCell id="WbZ3Wk0u_LfN1Q2NzHBl-14" value="&lt;font style=&quot;font-size: 14px;&quot;&gt;&lt;b&gt;失败&lt;/b&gt;&lt;/font&gt;" style="edgeStyle=orthogonalEdgeStyle;rounded=0;orthogonalLoop=1;jettySize=auto;html=1;" edge="1" parent="1" source="WbZ3Wk0u_LfN1Q2NzHBl-12" target="WbZ3Wk0u_LfN1Q2NzHBl-3">
          <mxGeometry x="-0.4141" relative="1" as="geometry">
            <mxPoint as="offset" />
          </mxGeometry>
        </mxCell>
        <mxCell id="WbZ3Wk0u_LfN1Q2NzHBl-18" value="&lt;b&gt;&lt;font style=&quot;font-size: 14px;&quot;&gt;成功&lt;/font&gt;&lt;/b&gt;" style="edgeStyle=orthogonalEdgeStyle;rounded=0;orthogonalLoop=1;jettySize=auto;html=1;" edge="1" parent="1" source="WbZ3Wk0u_LfN1Q2NzHBl-12" target="WbZ3Wk0u_LfN1Q2NzHBl-17">
          <mxGeometry relative="1" as="geometry" />
        </mxCell>
        <mxCell id="WbZ3Wk0u_LfN1Q2NzHBl-12" value="&lt;font style=&quot;font-size: 17px;&quot;&gt;成功或失败&lt;/font&gt;" style="rhombus;whiteSpace=wrap;html=1;rounded=0;arcSize=14;strokeWidth=2;" vertex="1" parent="1">
          <mxGeometry x="375" y="570" width="90" height="80" as="geometry" />
        </mxCell>
        <mxCell id="WbZ3Wk0u_LfN1Q2NzHBl-20" value="" style="edgeStyle=orthogonalEdgeStyle;rounded=0;orthogonalLoop=1;jettySize=auto;html=1;" edge="1" parent="1" source="WbZ3Wk0u_LfN1Q2NzHBl-17" target="WbZ3Wk0u_LfN1Q2NzHBl-19">
          <mxGeometry relative="1" as="geometry" />
        </mxCell>
        <mxCell id="WbZ3Wk0u_LfN1Q2NzHBl-17" value="&lt;font style=&quot;font-size: 17px;&quot;&gt;更新交接单记录&lt;br&gt;更新订单记录&lt;/font&gt;" style="rounded=1;whiteSpace=wrap;html=1;absoluteArcSize=1;arcSize=14;strokeWidth=2;fillColor=#cdeb8b;strokeColor=#36393d;" vertex="1" parent="1">
          <mxGeometry x="355" y="710" width="130" height="80" as="geometry" />
        </mxCell>
        <mxCell id="WbZ3Wk0u_LfN1Q2NzHBl-21" value="&lt;b&gt;&lt;font style=&quot;font-size: 14px;&quot;&gt;否&lt;/font&gt;&lt;/b&gt;" style="edgeStyle=orthogonalEdgeStyle;rounded=0;orthogonalLoop=1;jettySize=auto;html=1;entryX=1;entryY=0.5;entryDx=0;entryDy=0;entryPerimeter=0;" edge="1" parent="1" source="WbZ3Wk0u_LfN1Q2NzHBl-19" target="WbZ3Wk0u_LfN1Q2NzHBl-3">
          <mxGeometry relative="1" as="geometry" />
        </mxCell>
        <mxCell id="WbZ3Wk0u_LfN1Q2NzHBl-23" value="&lt;font style=&quot;font-size: 14px;&quot;&gt;&lt;b&gt;是&lt;/b&gt;&lt;/font&gt;" style="edgeStyle=orthogonalEdgeStyle;rounded=0;orthogonalLoop=1;jettySize=auto;html=1;" edge="1" parent="1" source="WbZ3Wk0u_LfN1Q2NzHBl-19" target="WbZ3Wk0u_LfN1Q2NzHBl-22">
          <mxGeometry relative="1" as="geometry" />
        </mxCell>
        <mxCell id="WbZ3Wk0u_LfN1Q2NzHBl-19" value="&lt;font style=&quot;font-size: 17px;&quot;&gt;是否&lt;br&gt;自动转至已发货&lt;/font&gt;" style="rhombus;whiteSpace=wrap;html=1;rounded=0;arcSize=14;strokeWidth=2;" vertex="1" parent="1">
          <mxGeometry x="375" y="840" width="90" height="80" as="geometry" />
        </mxCell>
        <mxCell id="WbZ3Wk0u_LfN1Q2NzHBl-24" style="edgeStyle=orthogonalEdgeStyle;rounded=0;orthogonalLoop=1;jettySize=auto;html=1;entryX=0.5;entryY=1;entryDx=0;entryDy=0;entryPerimeter=0;" edge="1" parent="1" source="WbZ3Wk0u_LfN1Q2NzHBl-22" target="WbZ3Wk0u_LfN1Q2NzHBl-3">
          <mxGeometry relative="1" as="geometry" />
        </mxCell>
        <mxCell id="WbZ3Wk0u_LfN1Q2NzHBl-26" value="" style="edgeStyle=orthogonalEdgeStyle;orthogonalLoop=1;jettySize=auto;html=1;curved=1;" edge="1" parent="1" source="WbZ3Wk0u_LfN1Q2NzHBl-22" target="WbZ3Wk0u_LfN1Q2NzHBl-25">
          <mxGeometry relative="1" as="geometry" />
        </mxCell>
        <mxCell id="WbZ3Wk0u_LfN1Q2NzHBl-22" value="&lt;font style=&quot;font-size: 17px;&quot;&gt;调用将订单转为&lt;br&gt;已发货状态接口&lt;/font&gt;" style="rounded=1;whiteSpace=wrap;html=1;absoluteArcSize=1;arcSize=14;strokeWidth=2;fillColor=#cdeb8b;strokeColor=#36393d;" vertex="1" parent="1">
          <mxGeometry x="355" y="980" width="130" height="70" as="geometry" />
        </mxCell>
        <mxCell id="WbZ3Wk0u_LfN1Q2NzHBl-25" value="&lt;font style=&quot;font-size: 17px;&quot;&gt;建议在前端进行调用：&lt;br&gt;1. 不会影响交接单提交事务；&lt;br&gt;2. 还有一个功能按钮是 &quot;批量转至已发货&quot; 可以复用;&lt;br&gt;&lt;/font&gt;" style="shape=document;whiteSpace=wrap;html=1;boundedLbl=1;rounded=1;arcSize=14;strokeWidth=2;" vertex="1" parent="1">
          <mxGeometry x="590" y="990" width="230" height="110" as="geometry" />
        </mxCell>
      </root>
    </mxGraphModel>
  </diagram>
</mxfile>
